<svg id="Layer_1" data-name="Layer 1" xmlns="http://www.w3.org/2000/svg" viewBox="0 0 2202.47 2475.39"><defs><style>.cls-1{fill:#a179dc;}.cls-2{fill:#280068;}.cls-3{fill:#390091;}.cls-4{fill:#fff;}</style></defs><path class="cls-1" d="M2212.12,740.07c0-41.62-8.91-78.4-26.92-110-17.68-31.05-44.16-57.06-79.68-77.63Q1665.71,298.88,1225.7,45.62C1146.68,0,1070.06,1.67,991.62,48c-116.7,68.82-701,403.58-875.13,504.43C44.79,593.9,9.89,657.43,9.88,740q-.18,510-.12,1020c0,40.71,8.54,76.78,25.75,107.86,17.69,32,44.55,58.72,80.89,79.75C290.52,2048.46,874.91,2383.2,991.59,2452c78.47,46.31,155.09,48,234.13,2.33q439.69-253.87,879.89-506.86c36.34-21,63.19-47.78,80.89-79.73,17.18-31.09,25.74-67.16,25.74-107.88,0,0,0-679.82-.12-1019.83" transform="translate(-9.76 -12.31)"/><path class="cls-2" d="M1114.37,1246.68,35.51,1867.86c17.69,32,44.55,58.72,80.89,79.75C290.52,2048.46,874.91,2383.2,991.59,2452c78.47,46.31,155.09,48,234.13,2.33q439.69-253.87,879.89-506.86c36.34-21,63.19-47.78,80.89-79.73Z" transform="translate(-9.76 -12.31)"/><path class="cls-3" d="M2212.12,740.07c0-41.62-8.91-78.4-26.92-110L1114.37,1246.69,2186.5,1867.78c17.18-31.09,25.72-67.16,25.74-107.88,0,0,0-679.82-.12-1019.83" transform="translate(-9.76 -12.31)"/><path class="cls-4" d="M1749.56,1014.47v116.11h116.12V1014.47h58v116.11h116.11v58.05H1923.73v116.11h116.11v58H1923.73v116.12h-58V1362.79H1749.56v116.12h-58V1362.79H1575.4v-58h116.11V1188.63H1575.4v-58.05h116.11V1014.47Zm116.12,174.16H1749.56v116.11h116.12Z" transform="translate(-9.76 -12.31)"/><path class="cls-4" d="M1116.74,431.34c302.85,0,567.26,164.47,708.89,409l-1.38-2.35L1467.92,1043.1C1397.72,924.24,1269,844,1121.38,842.37l-4.65,0c-225.13,0-407.65,182.52-407.65,407.65a405.63,405.63,0,0,0,53.77,202.25c70.26,122.67,202.36,205.41,353.89,205.41,152.47,0,285.32-83.79,355.22-207.77l-1.7,3L1826.05,1659c-140.07,242.41-400.87,406.37-700.19,409.64l-9.12,0c-303.81,0-569-165.49-710.24-411.26A814.9,814.9,0,0,1,298.07,1250c0-452.12,366.52-818.66,818.66-818.66Z" transform="translate(-9.76 -12.31)"/></svg>