<svg xmlns="http://www.w3.org/2000/svg" viewBox="0 0 1459.13 305.54"><defs><style>.cls-1{fill:#9aa3af;}.cls-2,.cls-3{fill:#ff014f;}.cls-3{opacity:0;}</style></defs><g id="Layer_1" data-name="Layer 1"><path class="cls-1" d="M504.06,548.41v-142h28.5v142ZM530,507.71v-24.3h21q14.15,0,21.86-7.2t7.71-20.1q0-12.21-7.71-18.81T551,430.7H530.4V406.4H551q28.82,0,44.57,12.55t15.76,35.46q0,25.39-15.76,39.35T551,507.71Z" transform="translate(-224.08 -312.04)"/><path class="cls-1" d="M687.32,550.41q-58.4,0-58.39-72,0-74,58.39-74t58.38,74Q745.7,550.41,687.32,550.41Zm0-25.2q28.48,0,28.49-46.8,0-48.92-28.49-48.91t-28.5,48.91Q658.82,525.21,687.32,525.21Z" transform="translate(-224.08 -312.04)"/><path class="cls-1" d="M769.77,548.41v-142h28.49v142Zm27-52v-24.3h27.52q9.93,0,15.43-5.45t5.51-15.25q0-9.92-5.51-15.31t-15.43-5.4H797.18l-2.59-24.3h29.68q24.71,0,38.2,11.2T876,449.4q0,22.31-13.49,34.66t-38.2,12.35Zm50.83,52-28.92-66.8h30l32.92,66.8Z" transform="translate(-224.08 -312.04)"/><path class="cls-1" d="M897.22,430.7V406.4h115.91v24.3Zm43.71,117.71v-142h28.49v142Z" transform="translate(-224.08 -312.04)"/><path class="cls-1" d="M1041.94,548.41v-142h28.49v142Zm0-117.71V406.4h105.12v24.3Zm0,64.81V471h83.86v24.5Z" transform="translate(-224.08 -312.04)"/><path class="cls-1" d="M1223,550.41q-58.39,0-58.39-72,0-74,58.39-74t58.38,74Q1281.42,550.41,1223,550.41Zm0-25.2q28.49,0,28.49-46.8,0-48.92-28.49-48.91t-28.5,48.91Q1194.54,525.21,1223,525.21Z" transform="translate(-224.08 -312.04)"/><path class="cls-1" d="M1307.64,548.41v-142h28.49v142Zm0,0v-24.3h105.12v24.3Z" transform="translate(-224.08 -312.04)"/><path class="cls-1" d="M1442.44,430.1V406.4h96.91v23.7Zm0,118.31v-23.8h96.91v23.8Zm34.1,0v-142H1505v142Z" transform="translate(-224.08 -312.04)"/><path class="cls-1" d="M1624.82,550.41q-58.38,0-58.38-72,0-74,58.38-74t58.39,74Q1683.21,550.41,1624.82,550.41Zm0-25.2q28.5,0,28.5-46.8,0-48.92-28.5-48.91t-28.49,48.91Q1596.33,525.21,1624.82,525.21Z" transform="translate(-224.08 -312.04)"/></g><g id="Layer_2" data-name="Layer 2"><polygon class="cls-1" points="233.06 224.04 91.9 305.54 10.4 164.37 20.3 158.66 144.15 247.17 200.72 168.02 233.06 224.04"/><rect class="cls-2" x="267" y="358" width="163" height="163" transform="matrix(0.58, -0.81, 0.81, 0.58, -435.78, 155.47)"/><polygon class="cls-3" points="247.17 103.01 200.72 168.02 144.15 247.17 20.3 158.66 0 144.15 103.01 0 247.17 103.01"/></g></svg>